<svg xmlns="http://www.w3.org/2000/svg" viewBox="0 0 100 100" width="100" height="100">
  <!-- Background Circle -->
  <circle cx="50" cy="50" r="45" fill="#002855" />

  <!-- Open Book Shape -->
  <path d="M30 30 h15 a5 5 0 0 1 5 5 v30 a5 5 0 0 1 -5 5 h-15 v-40 z" fill="#ffa559" />
  <path d="M55 30 h15 a5 5 0 0 1 5 5 v30 a5 5 0 0 1 -5 5 h-15 v-40 z" fill="#ffa559" />

  <!-- Spoon Icon (for cooking theme) -->
  <path d="M45 35 c-2 0 -3 1 -3 3 v15 c0 2 1 3 3 3 s3 -1 3 -3 v-15 c0 -2 -1 -3 -3 -3 z" fill="#002855" />
  <circle cx="45" cy="30" r="3" fill="#ffa559" />
</svg>