<svg xmlns="http://www.w3.org/2000/svg" xmlns:xlink="http://www.w3.org/1999/xlink" width="70" zoomAndPan="magnify" viewBox="0 0 52.5 30.000001" height="40" preserveAspectRatio="xMidYMid meet" version="1.0"><defs><g/><clipPath id="d1f46a0c05"><path d="M 39 14 L 51.410156 14 L 51.410156 22 L 39 22 Z M 39 14 " clip-rule="nonzero"/></clipPath></defs><g fill="#145f47" fill-opacity="1"><g transform="translate(0.604838, 12.447735)"><g><path d="M 7.203125 -6.25 C 6.460938 -6.25 5.757812 -6.179688 5.09375 -6.046875 C 4.425781 -5.921875 3.835938 -5.738281 3.328125 -5.5 C 2.828125 -5.257812 2.429688 -4.984375 2.140625 -4.671875 C 1.847656 -4.359375 1.703125 -4.023438 1.703125 -3.671875 C 1.703125 -3.660156 1.703125 -3.628906 1.703125 -3.578125 C 1.703125 -3.523438 1.703125 -3.488281 1.703125 -3.46875 C 1.703125 -3.113281 1.847656 -2.78125 2.140625 -2.46875 C 2.429688 -2.15625 2.828125 -1.878906 3.328125 -1.640625 C 3.835938 -1.410156 4.425781 -1.226562 5.09375 -1.09375 C 5.757812 -0.96875 6.460938 -0.90625 7.203125 -0.90625 C 7.984375 -0.90625 8.710938 -0.976562 9.390625 -1.125 C 10.066406 -1.28125 10.65625 -1.472656 11.15625 -1.703125 C 11.207031 -1.734375 11.242188 -1.765625 11.265625 -1.796875 C 11.285156 -1.835938 11.300781 -1.867188 11.3125 -1.890625 C 11.320312 -1.929688 11.34375 -1.945312 11.375 -1.9375 C 11.40625 -1.9375 11.414062 -1.914062 11.40625 -1.875 L 11.40625 -0.40625 C 11.40625 -0.375 11.394531 -0.351562 11.375 -0.34375 C 11.351562 -0.34375 11.335938 -0.351562 11.328125 -0.375 C 11.316406 -0.40625 11.289062 -0.4375 11.25 -0.46875 C 11.207031 -0.507812 11.140625 -0.515625 11.046875 -0.484375 C 10.484375 -0.265625 9.890625 -0.101562 9.265625 0 C 8.640625 0.101562 7.953125 0.15625 7.203125 0.15625 C 6.460938 0.15625 5.753906 0.0976562 5.078125 -0.015625 C 4.398438 -0.140625 3.773438 -0.3125 3.203125 -0.53125 C 2.640625 -0.75 2.148438 -1.007812 1.734375 -1.3125 C 1.328125 -1.625 1.007812 -1.960938 0.78125 -2.328125 C 0.550781 -2.691406 0.4375 -3.070312 0.4375 -3.46875 C 0.4375 -3.488281 0.4375 -3.523438 0.4375 -3.578125 C 0.4375 -3.628906 0.4375 -3.660156 0.4375 -3.671875 C 0.4375 -4.078125 0.550781 -4.460938 0.78125 -4.828125 C 1.007812 -5.191406 1.328125 -5.523438 1.734375 -5.828125 C 2.148438 -6.128906 2.640625 -6.390625 3.203125 -6.609375 C 3.773438 -6.828125 4.398438 -7 5.078125 -7.125 C 5.753906 -7.25 6.460938 -7.3125 7.203125 -7.3125 C 7.953125 -7.3125 8.640625 -7.253906 9.265625 -7.140625 C 9.890625 -7.035156 10.484375 -6.878906 11.046875 -6.671875 C 11.140625 -6.640625 11.207031 -6.640625 11.25 -6.671875 C 11.289062 -6.710938 11.316406 -6.75 11.328125 -6.78125 C 11.335938 -6.800781 11.351562 -6.804688 11.375 -6.796875 C 11.394531 -6.796875 11.40625 -6.78125 11.40625 -6.75 L 11.40625 -5.28125 C 11.414062 -5.238281 11.40625 -5.210938 11.375 -5.203125 C 11.34375 -5.203125 11.320312 -5.222656 11.3125 -5.265625 C 11.300781 -5.285156 11.285156 -5.3125 11.265625 -5.34375 C 11.242188 -5.382812 11.207031 -5.421875 11.15625 -5.453125 C 10.65625 -5.671875 10.066406 -5.859375 9.390625 -6.015625 C 8.710938 -6.171875 7.984375 -6.25 7.203125 -6.25 Z M 7.203125 -6.25 "/></g></g></g><g fill="#145f47" fill-opacity="1"><g transform="translate(12.582006, 12.447735)"><g><path d="M 6.28125 -7.15625 C 7.082031 -7.15625 7.835938 -7.0625 8.546875 -6.875 C 9.253906 -6.6875 9.875 -6.425781 10.40625 -6.09375 C 10.945312 -5.757812 11.367188 -5.375 11.671875 -4.9375 C 11.972656 -4.5 12.125 -4.023438 12.125 -3.515625 C 12.125 -3.015625 11.972656 -2.546875 11.671875 -2.109375 C 11.367188 -1.671875 10.945312 -1.285156 10.40625 -0.953125 C 9.875 -0.617188 9.253906 -0.359375 8.546875 -0.171875 C 7.835938 0.015625 7.082031 0.109375 6.28125 0.109375 C 5.46875 0.109375 4.707031 0.015625 4 -0.171875 C 3.289062 -0.359375 2.671875 -0.617188 2.140625 -0.953125 C 1.609375 -1.285156 1.1875 -1.671875 0.875 -2.109375 C 0.570312 -2.546875 0.421875 -3.015625 0.421875 -3.515625 C 0.421875 -4.023438 0.570312 -4.5 0.875 -4.9375 C 1.1875 -5.375 1.609375 -5.757812 2.140625 -6.09375 C 2.671875 -6.425781 3.289062 -6.6875 4 -6.875 C 4.707031 -7.0625 5.46875 -7.15625 6.28125 -7.15625 Z M 6.28125 -0.953125 C 6.925781 -0.953125 7.53125 -1.019531 8.09375 -1.15625 C 8.65625 -1.289062 9.148438 -1.472656 9.578125 -1.703125 C 10.003906 -1.941406 10.335938 -2.210938 10.578125 -2.515625 C 10.828125 -2.828125 10.953125 -3.160156 10.953125 -3.515625 C 10.953125 -3.878906 10.828125 -4.210938 10.578125 -4.515625 C 10.335938 -4.828125 10.003906 -5.101562 9.578125 -5.34375 C 9.148438 -5.582031 8.65625 -5.765625 8.09375 -5.890625 C 7.53125 -6.023438 6.925781 -6.09375 6.28125 -6.09375 C 5.632812 -6.09375 5.023438 -6.023438 4.453125 -5.890625 C 3.890625 -5.765625 3.394531 -5.582031 2.96875 -5.34375 C 2.539062 -5.101562 2.207031 -4.828125 1.96875 -4.515625 C 1.726562 -4.210938 1.609375 -3.878906 1.609375 -3.515625 C 1.609375 -3.160156 1.726562 -2.828125 1.96875 -2.515625 C 2.207031 -2.210938 2.539062 -1.941406 2.96875 -1.703125 C 3.394531 -1.472656 3.890625 -1.289062 4.453125 -1.15625 C 5.023438 -1.019531 5.632812 -0.953125 6.28125 -0.953125 Z M 6.28125 -0.953125 "/></g></g></g><g fill="#145f47" fill-opacity="1"><g transform="translate(25.136823, 12.447735)"><g><path d="M 6.28125 -7.15625 C 7.082031 -7.15625 7.835938 -7.0625 8.546875 -6.875 C 9.253906 -6.6875 9.875 -6.425781 10.40625 -6.09375 C 10.945312 -5.757812 11.367188 -5.375 11.671875 -4.9375 C 11.972656 -4.5 12.125 -4.023438 12.125 -3.515625 C 12.125 -3.015625 11.972656 -2.546875 11.671875 -2.109375 C 11.367188 -1.671875 10.945312 -1.285156 10.40625 -0.953125 C 9.875 -0.617188 9.253906 -0.359375 8.546875 -0.171875 C 7.835938 0.015625 7.082031 0.109375 6.28125 0.109375 C 5.46875 0.109375 4.707031 0.015625 4 -0.171875 C 3.289062 -0.359375 2.671875 -0.617188 2.140625 -0.953125 C 1.609375 -1.285156 1.1875 -1.671875 0.875 -2.109375 C 0.570312 -2.546875 0.421875 -3.015625 0.421875 -3.515625 C 0.421875 -4.023438 0.570312 -4.5 0.875 -4.9375 C 1.1875 -5.375 1.609375 -5.757812 2.140625 -6.09375 C 2.671875 -6.425781 3.289062 -6.6875 4 -6.875 C 4.707031 -7.0625 5.46875 -7.15625 6.28125 -7.15625 Z M 6.28125 -0.953125 C 6.925781 -0.953125 7.53125 -1.019531 8.09375 -1.15625 C 8.65625 -1.289062 9.148438 -1.472656 9.578125 -1.703125 C 10.003906 -1.941406 10.335938 -2.210938 10.578125 -2.515625 C 10.828125 -2.828125 10.953125 -3.160156 10.953125 -3.515625 C 10.953125 -3.878906 10.828125 -4.210938 10.578125 -4.515625 C 10.335938 -4.828125 10.003906 -5.101562 9.578125 -5.34375 C 9.148438 -5.582031 8.65625 -5.765625 8.09375 -5.890625 C 7.53125 -6.023438 6.925781 -6.09375 6.28125 -6.09375 C 5.632812 -6.09375 5.023438 -6.023438 4.453125 -5.890625 C 3.890625 -5.765625 3.394531 -5.582031 2.96875 -5.34375 C 2.539062 -5.101562 2.207031 -4.828125 1.96875 -4.515625 C 1.726562 -4.210938 1.609375 -3.878906 1.609375 -3.515625 C 1.609375 -3.160156 1.726562 -2.828125 1.96875 -2.515625 C 2.207031 -2.210938 2.539062 -1.941406 2.96875 -1.703125 C 3.394531 -1.472656 3.890625 -1.289062 4.453125 -1.15625 C 5.023438 -1.019531 5.632812 -0.953125 6.28125 -0.953125 Z M 6.28125 -0.953125 "/></g></g></g><g fill="#145f47" fill-opacity="1"><g transform="translate(37.691639, 12.447735)"><g><path d="M 12.765625 -0.046875 C 12.804688 -0.0351562 12.820312 -0.015625 12.8125 0.015625 C 12.8125 0.046875 12.796875 0.0625 12.765625 0.0625 C 12.648438 0.0625 12.539062 0.0625 12.4375 0.0625 C 12.332031 0.0625 12.222656 0.0625 12.109375 0.0625 C 11.921875 0.0703125 11.734375 0.078125 11.546875 0.078125 C 11.367188 0.078125 11.1875 0.0820312 11 0.09375 C 10.976562 0.09375 10.957031 0.09375 10.9375 0.09375 C 10.914062 0.09375 10.90625 0.078125 10.90625 0.046875 C 10.894531 0.0234375 10.898438 0.0078125 10.921875 0 C 10.953125 -0.0078125 10.972656 -0.015625 10.984375 -0.015625 C 11.210938 -0.0976562 11.289062 -0.253906 11.21875 -0.484375 C 11.195312 -0.523438 11.128906 -0.625 11.015625 -0.78125 C 10.910156 -0.9375 10.75 -1.117188 10.53125 -1.328125 C 10.320312 -1.546875 10.050781 -1.769531 9.71875 -2 C 9.382812 -2.226562 8.984375 -2.4375 8.515625 -2.625 C 8.054688 -2.820312 7.523438 -2.972656 6.921875 -3.078125 C 6.859375 -3.097656 6.710938 -3.113281 6.484375 -3.125 C 6.265625 -3.132812 6 -3.140625 5.6875 -3.140625 C 5.375 -3.140625 5.039062 -3.132812 4.6875 -3.125 C 4.332031 -3.125 3.992188 -3.117188 3.671875 -3.109375 C 3.347656 -3.109375 3.066406 -3.101562 2.828125 -3.09375 C 2.585938 -3.09375 2.425781 -3.09375 2.34375 -3.09375 C 2.1875 -3.09375 2.09375 -3.050781 2.0625 -2.96875 C 2.03125 -2.894531 2.015625 -2.832031 2.015625 -2.78125 C 2.003906 -2.613281 2 -2.460938 2 -2.328125 C 2 -2.203125 2 -2.054688 2 -1.890625 C 2 -1.703125 2 -1.519531 2 -1.34375 C 2 -1.175781 1.992188 -1.003906 1.984375 -0.828125 C 1.984375 -0.765625 1.984375 -0.703125 1.984375 -0.640625 C 1.984375 -0.585938 1.984375 -0.53125 1.984375 -0.46875 C 1.984375 -0.375 2.003906 -0.296875 2.046875 -0.234375 C 2.097656 -0.171875 2.171875 -0.125 2.265625 -0.09375 C 2.273438 -0.0820312 2.289062 -0.0703125 2.3125 -0.0625 C 2.332031 -0.0625 2.335938 -0.0507812 2.328125 -0.03125 C 2.316406 0 2.300781 0.015625 2.28125 0.015625 C 2.269531 0.015625 2.25 0.015625 2.21875 0.015625 C 2.15625 0.015625 2.09375 0.015625 2.03125 0.015625 C 1.96875 0.015625 1.898438 0.015625 1.828125 0.015625 C 1.828125 0.0234375 1.828125 0.03125 1.828125 0.03125 C 1.671875 0.03125 1.515625 0.0234375 1.359375 0.015625 C 1.203125 0.015625 1.046875 0.0195312 0.890625 0.03125 C 0.847656 0.03125 0.804688 0.03125 0.765625 0.03125 C 0.722656 0.0390625 0.679688 0.0390625 0.640625 0.03125 C 0.609375 0.03125 0.582031 0.0195312 0.5625 0 C 0.5625 -0.0195312 0.566406 -0.03125 0.578125 -0.03125 C 0.585938 -0.0390625 0.597656 -0.0507812 0.609375 -0.0625 C 0.617188 -0.0703125 0.628906 -0.078125 0.640625 -0.078125 C 0.648438 -0.0859375 0.660156 -0.0976562 0.671875 -0.109375 C 0.773438 -0.148438 0.835938 -0.210938 0.859375 -0.296875 C 0.890625 -0.378906 0.90625 -0.46875 0.90625 -0.5625 C 0.90625 -0.601562 0.90625 -0.738281 0.90625 -0.96875 C 0.90625 -1.195312 0.90625 -1.484375 0.90625 -1.828125 C 0.90625 -2.171875 0.90625 -2.546875 0.90625 -2.953125 C 0.90625 -3.359375 0.90625 -3.757812 0.90625 -4.15625 C 0.90625 -4.5625 0.898438 -4.929688 0.890625 -5.265625 C 0.890625 -5.597656 0.890625 -5.867188 0.890625 -6.078125 C 0.890625 -6.296875 0.890625 -6.414062 0.890625 -6.4375 C 0.878906 -6.519531 0.847656 -6.582031 0.796875 -6.625 C 0.753906 -6.664062 0.707031 -6.703125 0.65625 -6.734375 C 0.613281 -6.742188 0.59375 -6.765625 0.59375 -6.796875 C 0.59375 -6.828125 0.613281 -6.84375 0.65625 -6.84375 C 0.726562 -6.84375 0.84375 -6.84375 1 -6.84375 C 1.164062 -6.84375 1.34375 -6.84375 1.53125 -6.84375 C 1.726562 -6.84375 1.894531 -6.84375 2.03125 -6.84375 C 2.175781 -6.84375 2.253906 -6.84375 2.265625 -6.84375 C 2.296875 -6.84375 2.3125 -6.820312 2.3125 -6.78125 C 2.320312 -6.75 2.300781 -6.734375 2.25 -6.734375 C 2.175781 -6.710938 2.117188 -6.664062 2.078125 -6.59375 C 2.035156 -6.519531 2.015625 -6.445312 2.015625 -6.375 C 2.015625 -6.164062 2.015625 -5.957031 2.015625 -5.75 C 2.015625 -5.550781 2.015625 -5.347656 2.015625 -5.140625 C 2.015625 -5.078125 2.015625 -5.007812 2.015625 -4.9375 C 2.015625 -4.863281 2.015625 -4.785156 2.015625 -4.703125 C 2.015625 -4.628906 2.050781 -4.550781 2.125 -4.46875 C 2.207031 -4.394531 2.289062 -4.359375 2.375 -4.359375 C 2.582031 -4.335938 2.789062 -4.328125 3 -4.328125 C 3.207031 -4.335938 3.414062 -4.34375 3.625 -4.34375 C 4.425781 -4.332031 5.125 -4.332031 5.71875 -4.34375 C 6.320312 -4.363281 6.847656 -4.398438 7.296875 -4.453125 C 7.742188 -4.515625 8.128906 -4.597656 8.453125 -4.703125 C 8.785156 -4.804688 9.082031 -4.9375 9.34375 -5.09375 C 9.613281 -5.257812 9.867188 -5.453125 10.109375 -5.671875 C 10.347656 -5.898438 10.597656 -6.164062 10.859375 -6.46875 C 10.890625 -6.53125 10.875 -6.582031 10.8125 -6.625 C 10.757812 -6.664062 10.703125 -6.691406 10.640625 -6.703125 C 10.585938 -6.722656 10.5625 -6.75 10.5625 -6.78125 C 10.5625 -6.820312 10.578125 -6.84375 10.609375 -6.84375 C 10.660156 -6.84375 10.765625 -6.84375 10.921875 -6.84375 C 11.085938 -6.84375 11.269531 -6.84375 11.46875 -6.84375 C 11.664062 -6.84375 11.851562 -6.84375 12.03125 -6.84375 C 12.21875 -6.84375 12.363281 -6.84375 12.46875 -6.84375 C 12.5 -6.84375 12.515625 -6.820312 12.515625 -6.78125 C 12.523438 -6.75 12.515625 -6.734375 12.484375 -6.734375 C 12.429688 -6.710938 12.390625 -6.691406 12.359375 -6.671875 C 12.328125 -6.648438 12.296875 -6.613281 12.265625 -6.5625 C 12.234375 -6.519531 12.1875 -6.453125 12.125 -6.359375 C 11.945312 -6.117188 11.738281 -5.875 11.5 -5.625 C 11.269531 -5.382812 11.03125 -5.15625 10.78125 -4.9375 C 10.53125 -4.71875 10.289062 -4.519531 10.0625 -4.34375 C 9.84375 -4.175781 9.644531 -4.039062 9.46875 -3.9375 C 9.300781 -3.832031 9.1875 -3.769531 9.125 -3.75 C 9.019531 -3.695312 8.972656 -3.644531 8.984375 -3.59375 C 8.992188 -3.539062 9.019531 -3.507812 9.0625 -3.5 C 9.601562 -3.238281 10.078125 -2.941406 10.484375 -2.609375 C 10.898438 -2.285156 11.25 -1.960938 11.53125 -1.640625 C 11.8125 -1.328125 12.03125 -1.046875 12.1875 -0.796875 C 12.34375 -0.554688 12.445312 -0.382812 12.5 -0.28125 C 12.550781 -0.175781 12.597656 -0.113281 12.640625 -0.09375 C 12.691406 -0.0703125 12.734375 -0.0546875 12.765625 -0.046875 Z M 12.765625 -0.046875 "/></g></g></g><g fill="#145f47" fill-opacity="1"><g transform="translate(0.604838, 21.473465)"><g><path d="M 11.203125 -6.75 C 11.117188 -6.71875 11.0625 -6.671875 11.03125 -6.609375 C 11.007812 -6.546875 10.992188 -6.476562 10.984375 -6.40625 C 10.984375 -6.363281 10.984375 -6.226562 10.984375 -6 C 10.984375 -5.78125 10.984375 -5.5 10.984375 -5.15625 C 10.984375 -4.820312 10.984375 -4.453125 10.984375 -4.046875 C 10.984375 -3.648438 10.984375 -3.253906 10.984375 -2.859375 C 10.984375 -2.460938 10.984375 -2.09375 10.984375 -1.75 C 10.984375 -1.40625 10.984375 -1.117188 10.984375 -0.890625 C 10.984375 -0.671875 10.984375 -0.539062 10.984375 -0.5 C 10.984375 -0.40625 10.992188 -0.320312 11.015625 -0.25 C 11.035156 -0.1875 11.101562 -0.144531 11.21875 -0.125 C 11.269531 -0.101562 11.289062 -0.078125 11.28125 -0.046875 C 11.269531 -0.015625 11.25 0 11.21875 0 L 9.59375 0 C 9.550781 0 9.53125 -0.015625 9.53125 -0.046875 C 9.539062 -0.0859375 9.570312 -0.113281 9.625 -0.125 C 9.632812 -0.125 9.644531 -0.128906 9.65625 -0.140625 C 9.71875 -0.148438 9.757812 -0.179688 9.78125 -0.234375 C 9.800781 -0.296875 9.789062 -0.351562 9.75 -0.40625 C 9.570312 -0.65625 9.316406 -0.941406 8.984375 -1.265625 C 8.660156 -1.597656 8.28125 -1.941406 7.84375 -2.296875 C 7.40625 -2.660156 6.941406 -3.015625 6.453125 -3.359375 C 5.960938 -3.710938 5.46875 -4.023438 4.96875 -4.296875 C 4.46875 -4.578125 3.988281 -4.800781 3.53125 -4.96875 C 3.070312 -5.144531 2.660156 -5.234375 2.296875 -5.234375 C 2.109375 -5.273438 2.015625 -5.203125 2.015625 -5.015625 C 2.015625 -4.960938 2.015625 -4.820312 2.015625 -4.59375 C 2.015625 -4.375 2.007812 -4.101562 2 -3.78125 C 2 -3.457031 1.992188 -3.117188 1.984375 -2.765625 C 1.984375 -2.410156 1.984375 -2.070312 1.984375 -1.75 C 1.984375 -1.4375 1.984375 -1.171875 1.984375 -0.953125 C 1.984375 -0.734375 1.984375 -0.601562 1.984375 -0.5625 C 1.984375 -0.46875 2.007812 -0.375 2.0625 -0.28125 C 2.113281 -0.195312 2.171875 -0.144531 2.234375 -0.125 C 2.265625 -0.101562 2.28125 -0.078125 2.28125 -0.046875 C 2.289062 -0.015625 2.269531 0 2.21875 0 C 2.132812 0 2.015625 0 1.859375 0 C 1.703125 0 1.535156 0 1.359375 0 C 1.191406 0 1.039062 0 0.90625 0 C 0.769531 0 0.679688 0 0.640625 0 C 0.609375 0 0.582031 -0.015625 0.5625 -0.046875 C 0.5625 -0.078125 0.570312 -0.0976562 0.59375 -0.109375 C 0.613281 -0.117188 0.632812 -0.128906 0.65625 -0.140625 C 0.769531 -0.191406 0.835938 -0.265625 0.859375 -0.359375 C 0.890625 -0.453125 0.90625 -0.5625 0.90625 -0.6875 C 0.90625 -0.71875 0.90625 -0.84375 0.90625 -1.0625 C 0.90625 -1.289062 0.90625 -1.570312 0.90625 -1.90625 C 0.90625 -2.238281 0.90625 -2.597656 0.90625 -2.984375 C 0.90625 -3.378906 0.90625 -3.773438 0.90625 -4.171875 C 0.90625 -4.566406 0.90625 -4.929688 0.90625 -5.265625 C 0.90625 -5.609375 0.898438 -5.890625 0.890625 -6.109375 C 0.890625 -6.328125 0.890625 -6.457031 0.890625 -6.5 C 0.867188 -6.625 0.796875 -6.71875 0.671875 -6.78125 C 0.617188 -6.800781 0.597656 -6.828125 0.609375 -6.859375 C 0.617188 -6.890625 0.640625 -6.90625 0.671875 -6.90625 L 2.28125 -6.90625 C 2.3125 -6.90625 2.328125 -6.890625 2.328125 -6.859375 C 2.335938 -6.828125 2.320312 -6.804688 2.28125 -6.796875 C 2.238281 -6.785156 2.195312 -6.765625 2.15625 -6.734375 C 2.113281 -6.710938 2.09375 -6.679688 2.09375 -6.640625 C 2.09375 -6.617188 2.109375 -6.597656 2.140625 -6.578125 C 2.179688 -6.566406 2.226562 -6.5625 2.28125 -6.5625 C 2.8125 -6.488281 3.359375 -6.335938 3.921875 -6.109375 C 4.492188 -5.878906 5.054688 -5.601562 5.609375 -5.28125 C 6.171875 -4.957031 6.703125 -4.617188 7.203125 -4.265625 C 7.703125 -3.910156 8.15625 -3.566406 8.5625 -3.234375 C 8.96875 -2.910156 9.300781 -2.628906 9.5625 -2.390625 C 9.625 -2.335938 9.6875 -2.328125 9.75 -2.359375 C 9.820312 -2.390625 9.859375 -2.441406 9.859375 -2.515625 L 9.8125 -6.34375 C 9.8125 -6.457031 9.8125 -6.546875 9.8125 -6.609375 C 9.8125 -6.679688 9.75 -6.738281 9.625 -6.78125 C 9.570312 -6.789062 9.546875 -6.8125 9.546875 -6.84375 C 9.554688 -6.882812 9.582031 -6.90625 9.625 -6.90625 L 11.25 -6.90625 C 11.289062 -6.90625 11.3125 -6.882812 11.3125 -6.84375 C 11.3125 -6.8125 11.273438 -6.78125 11.203125 -6.75 Z M 11.203125 -6.75 "/></g></g></g><g fill="#145f47" fill-opacity="1"><g transform="translate(12.482721, 21.473465)"><g><path d="M 12.75 -1.4375 C 12.75 -1.394531 12.75 -1.316406 12.75 -1.203125 C 12.75 -1.085938 12.75 -0.957031 12.75 -0.8125 C 12.75 -0.675781 12.75 -0.539062 12.75 -0.40625 C 12.75 -0.28125 12.75 -0.175781 12.75 -0.09375 C 12.75 0 12.695312 0.046875 12.59375 0.046875 C 12.5625 0.046875 12.398438 0.046875 12.109375 0.046875 C 11.816406 0.046875 11.4375 0.046875 10.96875 0.046875 C 10.5 0.046875 9.96875 0.046875 9.375 0.046875 C 8.78125 0.046875 8.160156 0.046875 7.515625 0.046875 C 6.867188 0.046875 6.226562 0.046875 5.59375 0.046875 C 4.957031 0.046875 4.359375 0.046875 3.796875 0.046875 C 3.242188 0.046875 2.757812 0.046875 2.34375 0.046875 C 2.332031 0.046875 2.320312 0.046875 2.3125 0.046875 L 0.625 0.046875 C 0.570312 0.046875 0.546875 0.03125 0.546875 0 C 0.554688 -0.0195312 0.582031 -0.0351562 0.625 -0.046875 C 0.726562 -0.078125 0.796875 -0.125 0.828125 -0.1875 C 0.867188 -0.257812 0.890625 -0.335938 0.890625 -0.421875 C 0.890625 -0.503906 0.890625 -0.585938 0.890625 -0.671875 C 0.890625 -0.703125 0.890625 -0.804688 0.890625 -0.984375 C 0.890625 -1.160156 0.890625 -1.390625 0.890625 -1.671875 C 0.890625 -1.953125 0.890625 -2.253906 0.890625 -2.578125 L 0.890625 -6.34375 C 0.890625 -6.414062 0.878906 -6.484375 0.859375 -6.546875 C 0.835938 -6.609375 0.78125 -6.660156 0.6875 -6.703125 C 0.632812 -6.722656 0.609375 -6.742188 0.609375 -6.765625 C 0.609375 -6.796875 0.640625 -6.8125 0.703125 -6.8125 L 2.296875 -6.8125 C 2.316406 -6.8125 2.328125 -6.8125 2.328125 -6.8125 C 2.742188 -6.8125 3.234375 -6.8125 3.796875 -6.8125 C 4.359375 -6.8125 4.953125 -6.8125 5.578125 -6.8125 C 6.210938 -6.8125 6.851562 -6.8125 7.5 -6.8125 C 8.144531 -6.8125 8.757812 -6.8125 9.34375 -6.8125 C 9.9375 -6.8125 10.46875 -6.8125 10.9375 -6.8125 C 11.414062 -6.8125 11.800781 -6.8125 12.09375 -6.8125 C 12.382812 -6.8125 12.546875 -6.8125 12.578125 -6.8125 C 12.679688 -6.8125 12.734375 -6.765625 12.734375 -6.671875 C 12.734375 -6.597656 12.734375 -6.492188 12.734375 -6.359375 C 12.734375 -6.222656 12.734375 -6.082031 12.734375 -5.9375 C 12.734375 -5.789062 12.734375 -5.660156 12.734375 -5.546875 C 12.734375 -5.441406 12.734375 -5.375 12.734375 -5.34375 C 12.734375 -5.3125 12.71875 -5.296875 12.6875 -5.296875 C 12.664062 -5.296875 12.65625 -5.3125 12.65625 -5.34375 C 12.625 -5.488281 12.5625 -5.582031 12.46875 -5.625 C 12.382812 -5.664062 12.285156 -5.6875 12.171875 -5.6875 C 12.066406 -5.6875 11.894531 -5.6875 11.65625 -5.6875 C 11.414062 -5.6875 11.144531 -5.6875 10.84375 -5.6875 C 10.550781 -5.6875 10.285156 -5.6875 10.046875 -5.6875 L 7.3125 -5.6875 C 7.082031 -5.6875 6.800781 -5.6875 6.46875 -5.6875 C 6.144531 -5.6875 5.789062 -5.6875 5.40625 -5.6875 C 5.03125 -5.6875 4.648438 -5.6875 4.265625 -5.6875 C 3.878906 -5.6875 3.515625 -5.6875 3.171875 -5.6875 C 2.828125 -5.6875 2.523438 -5.6875 2.265625 -5.6875 C 2.203125 -5.6875 2.144531 -5.660156 2.09375 -5.609375 C 2.050781 -5.566406 2.03125 -5.519531 2.03125 -5.46875 C 2.03125 -5.269531 2.03125 -5.035156 2.03125 -4.765625 C 2.03125 -4.503906 2.03125 -4.226562 2.03125 -3.9375 C 2.03125 -3.875 2.050781 -3.820312 2.09375 -3.78125 C 2.144531 -3.738281 2.203125 -3.71875 2.265625 -3.71875 C 2.554688 -3.71875 2.832031 -3.71875 3.09375 -3.71875 C 3.363281 -3.71875 3.59375 -3.71875 3.78125 -3.71875 L 6.515625 -3.71875 C 6.765625 -3.71875 7.035156 -3.71875 7.328125 -3.71875 C 7.617188 -3.71875 7.882812 -3.71875 8.125 -3.71875 C 8.375 -3.71875 8.546875 -3.71875 8.640625 -3.71875 C 8.765625 -3.71875 8.867188 -3.738281 8.953125 -3.78125 C 9.046875 -3.820312 9.101562 -3.914062 9.125 -4.0625 C 9.125 -4.09375 9.140625 -4.109375 9.171875 -4.109375 C 9.203125 -4.109375 9.21875 -4.09375 9.21875 -4.0625 C 9.21875 -4.03125 9.21875 -3.96875 9.21875 -3.875 C 9.21875 -3.78125 9.21875 -3.675781 9.21875 -3.5625 C 9.21875 -3.550781 9.21875 -3.546875 9.21875 -3.546875 C 9.207031 -3.503906 9.203125 -3.445312 9.203125 -3.375 C 9.203125 -3.300781 9.203125 -3.222656 9.203125 -3.140625 C 9.203125 -3.066406 9.203125 -2.992188 9.203125 -2.921875 C 9.203125 -2.847656 9.207031 -2.789062 9.21875 -2.75 L 9.21875 -2.734375 C 9.21875 -2.617188 9.21875 -2.515625 9.21875 -2.421875 C 9.21875 -2.328125 9.21875 -2.257812 9.21875 -2.21875 C 9.21875 -2.195312 9.203125 -2.1875 9.171875 -2.1875 C 9.140625 -2.1875 9.125 -2.203125 9.125 -2.234375 C 9.101562 -2.378906 9.046875 -2.472656 8.953125 -2.515625 C 8.867188 -2.554688 8.765625 -2.578125 8.640625 -2.578125 C 8.546875 -2.578125 8.375 -2.578125 8.125 -2.578125 C 7.882812 -2.578125 7.617188 -2.578125 7.328125 -2.578125 C 7.035156 -2.578125 6.765625 -2.578125 6.515625 -2.578125 L 3.78125 -2.578125 C 3.59375 -2.578125 3.363281 -2.578125 3.09375 -2.578125 C 2.832031 -2.578125 2.554688 -2.578125 2.265625 -2.578125 C 2.203125 -2.578125 2.144531 -2.554688 2.09375 -2.515625 C 2.050781 -2.472656 2.03125 -2.421875 2.03125 -2.359375 L 2.03125 -1.953125 C 2.03125 -1.828125 2.03125 -1.707031 2.03125 -1.59375 C 2.03125 -1.488281 2.03125 -1.394531 2.03125 -1.3125 C 2.03125 -1.238281 2.050781 -1.179688 2.09375 -1.140625 C 2.144531 -1.097656 2.203125 -1.078125 2.265625 -1.078125 C 2.523438 -1.078125 2.828125 -1.078125 3.171875 -1.078125 C 3.523438 -1.078125 3.890625 -1.078125 4.265625 -1.078125 C 4.648438 -1.078125 5.03125 -1.078125 5.40625 -1.078125 C 5.789062 -1.078125 6.144531 -1.078125 6.46875 -1.078125 C 6.800781 -1.078125 7.082031 -1.078125 7.3125 -1.078125 L 10.046875 -1.078125 C 10.296875 -1.078125 10.566406 -1.078125 10.859375 -1.078125 C 11.160156 -1.078125 11.429688 -1.078125 11.671875 -1.078125 C 11.910156 -1.078125 12.078125 -1.078125 12.171875 -1.078125 C 12.296875 -1.085938 12.40625 -1.109375 12.5 -1.140625 C 12.59375 -1.179688 12.644531 -1.273438 12.65625 -1.421875 C 12.65625 -1.460938 12.671875 -1.484375 12.703125 -1.484375 C 12.734375 -1.484375 12.75 -1.46875 12.75 -1.4375 Z M 12.75 -1.4375 "/></g></g></g><g fill="#145f47" fill-opacity="1"><g transform="translate(25.768621, 21.473465)"><g><path d="M 12.75 -5 C 12.800781 -4.96875 12.820312 -4.9375 12.8125 -4.90625 C 12.800781 -4.863281 12.769531 -4.84375 12.71875 -4.84375 C 12.675781 -4.84375 12.601562 -4.84375 12.5 -4.84375 C 12.394531 -4.84375 12.273438 -4.84375 12.140625 -4.84375 C 12.003906 -4.84375 11.878906 -4.84375 11.765625 -4.84375 C 11.648438 -4.84375 11.554688 -4.84375 11.484375 -4.84375 C 11.453125 -4.84375 11.425781 -4.847656 11.40625 -4.859375 C 11.382812 -4.867188 11.367188 -4.882812 11.359375 -4.90625 C 11.359375 -4.945312 11.367188 -4.96875 11.390625 -4.96875 C 11.410156 -4.976562 11.429688 -4.988281 11.453125 -5 C 11.523438 -5.039062 11.570312 -5.097656 11.59375 -5.171875 C 11.625 -5.253906 11.625 -5.347656 11.59375 -5.453125 C 11.53125 -5.585938 11.457031 -5.6875 11.375 -5.75 C 11.289062 -5.8125 11.171875 -5.847656 11.015625 -5.859375 C 10.941406 -5.859375 10.78125 -5.859375 10.53125 -5.859375 C 10.28125 -5.859375 9.960938 -5.859375 9.578125 -5.859375 C 9.203125 -5.859375 8.785156 -5.859375 8.328125 -5.859375 C 7.878906 -5.859375 7.410156 -5.859375 6.921875 -5.859375 C 6.441406 -5.859375 5.96875 -5.859375 5.5 -5.859375 C 5.03125 -5.859375 4.601562 -5.859375 4.21875 -5.859375 C 3.832031 -5.867188 3.503906 -5.875 3.234375 -5.875 C 2.960938 -5.875 2.785156 -5.875 2.703125 -5.875 C 2.617188 -5.875 2.53125 -5.867188 2.4375 -5.859375 C 2.351562 -5.859375 2.269531 -5.847656 2.1875 -5.828125 C 2.09375 -5.796875 2.046875 -5.738281 2.046875 -5.65625 C 2.054688 -5.539062 2.15625 -5.425781 2.34375 -5.3125 C 2.53125 -5.195312 2.78125 -5.097656 3.09375 -5.015625 C 3.625 -4.859375 4.1875 -4.707031 4.78125 -4.5625 C 5.375 -4.414062 5.96875 -4.273438 6.5625 -4.140625 C 7.15625 -4.015625 7.726562 -3.882812 8.28125 -3.75 C 8.832031 -3.625 9.34375 -3.5 9.8125 -3.375 C 10.28125 -3.257812 10.679688 -3.144531 11.015625 -3.03125 C 11.359375 -2.914062 11.609375 -2.796875 11.765625 -2.671875 C 11.847656 -2.609375 11.929688 -2.539062 12.015625 -2.46875 C 12.097656 -2.40625 12.175781 -2.332031 12.25 -2.25 C 12.289062 -2.195312 12.332031 -2.140625 12.375 -2.078125 C 12.5 -1.867188 12.578125 -1.65625 12.609375 -1.4375 C 12.640625 -1.226562 12.640625 -1.007812 12.609375 -0.78125 C 12.585938 -0.570312 12.515625 -0.410156 12.390625 -0.296875 C 12.265625 -0.179688 12.109375 -0.0976562 11.921875 -0.046875 C 11.785156 -0.00390625 11.664062 0.015625 11.5625 0.015625 C 11.46875 0.015625 11.269531 0.015625 10.96875 0.015625 C 10.664062 0.015625 10.289062 0.015625 9.84375 0.015625 C 9.40625 0.015625 8.925781 0.015625 8.40625 0.015625 C 7.882812 0.015625 7.347656 0.015625 6.796875 0.015625 C 6.253906 0.015625 5.722656 0.015625 5.203125 0.015625 C 4.691406 0.015625 4.226562 0.015625 3.8125 0.015625 C 3.40625 0.015625 3.070312 0.015625 2.8125 0.015625 C 2.550781 0.015625 2.398438 0.015625 2.359375 0.015625 C 1.972656 0.015625 1.648438 -0.0625 1.390625 -0.21875 C 1.128906 -0.375 0.941406 -0.582031 0.828125 -0.84375 C 0.773438 -0.945312 0.742188 -1.066406 0.734375 -1.203125 C 0.722656 -1.347656 0.710938 -1.476562 0.703125 -1.59375 C 0.703125 -1.707031 0.6875 -1.78125 0.65625 -1.8125 C 0.613281 -1.851562 0.566406 -1.882812 0.515625 -1.90625 C 0.460938 -1.925781 0.4375 -1.957031 0.4375 -2 C 0.4375 -2.03125 0.472656 -2.050781 0.546875 -2.0625 L 1.84375 -2.0625 C 1.875 -2.0625 1.910156 -2.054688 1.953125 -2.046875 C 1.992188 -2.046875 2.015625 -2.03125 2.015625 -2 C 2.023438 -1.96875 2.015625 -1.941406 1.984375 -1.921875 C 1.953125 -1.898438 1.925781 -1.890625 1.90625 -1.890625 C 1.8125 -1.847656 1.753906 -1.789062 1.734375 -1.71875 C 1.722656 -1.644531 1.734375 -1.550781 1.765625 -1.4375 C 1.804688 -1.300781 1.875 -1.195312 1.96875 -1.125 C 2.0625 -1.0625 2.179688 -1.03125 2.328125 -1.03125 C 2.367188 -1.019531 2.523438 -1.015625 2.796875 -1.015625 C 3.066406 -1.015625 3.410156 -1.015625 3.828125 -1.015625 C 4.253906 -1.015625 4.722656 -1.015625 5.234375 -1.015625 C 5.753906 -1.015625 6.285156 -1.015625 6.828125 -1.015625 C 7.378906 -1.015625 7.910156 -1.015625 8.421875 -1.015625 C 8.929688 -1.015625 9.390625 -1.015625 9.796875 -1.015625 C 10.210938 -1.023438 10.546875 -1.03125 10.796875 -1.03125 C 11.054688 -1.039062 11.191406 -1.050781 11.203125 -1.0625 C 11.285156 -1.070312 11.335938 -1.109375 11.359375 -1.171875 C 11.378906 -1.242188 11.367188 -1.3125 11.328125 -1.375 C 11.234375 -1.519531 11.117188 -1.640625 10.984375 -1.734375 C 10.847656 -1.828125 10.707031 -1.910156 10.5625 -1.984375 C 10.320312 -2.097656 10 -2.210938 9.59375 -2.328125 C 9.1875 -2.441406 8.722656 -2.554688 8.203125 -2.671875 C 7.679688 -2.796875 7.128906 -2.921875 6.546875 -3.046875 C 5.972656 -3.171875 5.398438 -3.296875 4.828125 -3.421875 C 4.265625 -3.554688 3.726562 -3.695312 3.21875 -3.84375 C 2.707031 -3.988281 2.253906 -4.132812 1.859375 -4.28125 C 1.742188 -4.332031 1.628906 -4.390625 1.515625 -4.453125 C 1.398438 -4.515625 1.289062 -4.585938 1.1875 -4.671875 C 1.039062 -4.785156 0.941406 -4.898438 0.890625 -5.015625 C 0.847656 -5.128906 0.8125 -5.273438 0.78125 -5.453125 C 0.75 -5.585938 0.738281 -5.738281 0.75 -5.90625 C 0.769531 -6.070312 0.8125 -6.222656 0.875 -6.359375 C 0.96875 -6.554688 1.128906 -6.703125 1.359375 -6.796875 C 1.546875 -6.867188 1.738281 -6.898438 1.9375 -6.890625 C 2.132812 -6.878906 2.332031 -6.878906 2.53125 -6.890625 L 11.171875 -6.90625 C 11.421875 -6.90625 11.65625 -6.835938 11.875 -6.703125 C 12.09375 -6.578125 12.253906 -6.398438 12.359375 -6.171875 C 12.441406 -6.015625 12.5 -5.859375 12.53125 -5.703125 C 12.570312 -5.546875 12.585938 -5.40625 12.578125 -5.28125 C 12.578125 -5.207031 12.585938 -5.148438 12.609375 -5.109375 C 12.628906 -5.066406 12.675781 -5.03125 12.75 -5 Z M 12.75 -5 "/></g></g></g><g clip-path="url(#d1f46a0c05)"><g fill="#145f47" fill-opacity="1"><g transform="translate(39.072572, 21.473465)"><g><path d="M 12.078125 -6.734375 C 12.066406 -6.660156 12.0625 -6.554688 12.0625 -6.421875 C 12.070312 -6.285156 12.078125 -6.140625 12.078125 -5.984375 C 12.078125 -5.835938 12.078125 -5.707031 12.078125 -5.59375 C 12.078125 -5.476562 12.078125 -5.398438 12.078125 -5.359375 C 12.078125 -5.328125 12.0625 -5.3125 12.03125 -5.3125 C 12.007812 -5.3125 12 -5.332031 12 -5.375 C 11.96875 -5.519531 11.90625 -5.613281 11.8125 -5.65625 C 11.726562 -5.695312 11.625 -5.71875 11.5 -5.71875 C 11.425781 -5.71875 11.300781 -5.71875 11.125 -5.71875 C 10.945312 -5.71875 10.75 -5.71875 10.53125 -5.71875 C 10.3125 -5.71875 10.085938 -5.71875 9.859375 -5.71875 C 9.628906 -5.71875 9.414062 -5.71875 9.21875 -5.71875 C 9.03125 -5.71875 8.882812 -5.71875 8.78125 -5.71875 C 8.625 -5.71875 8.546875 -5.640625 8.546875 -5.484375 C 8.546875 -5.441406 8.546875 -5.320312 8.546875 -5.125 C 8.546875 -4.925781 8.546875 -4.679688 8.546875 -4.390625 C 8.546875 -4.109375 8.546875 -3.796875 8.546875 -3.453125 C 8.546875 -3.117188 8.546875 -2.785156 8.546875 -2.453125 C 8.546875 -2.117188 8.546875 -1.8125 8.546875 -1.53125 C 8.546875 -1.257812 8.546875 -1.035156 8.546875 -0.859375 C 8.546875 -0.679688 8.546875 -0.582031 8.546875 -0.5625 C 8.546875 -0.476562 8.5625 -0.394531 8.59375 -0.3125 C 8.632812 -0.238281 8.695312 -0.179688 8.78125 -0.140625 C 8.800781 -0.128906 8.828125 -0.117188 8.859375 -0.109375 C 8.890625 -0.0976562 8.898438 -0.078125 8.890625 -0.046875 C 8.878906 -0.015625 8.859375 0 8.828125 0 C 8.796875 0 8.769531 0 8.75 0 C 8.65625 0 8.535156 0 8.390625 0 C 8.242188 0 8.085938 0 7.921875 0 C 7.753906 0 7.601562 0 7.46875 0 C 7.34375 0 7.257812 0 7.21875 0 C 7.195312 0 7.175781 0 7.15625 0 C 7.132812 -0.0078125 7.117188 -0.0234375 7.109375 -0.046875 C 7.097656 -0.0664062 7.101562 -0.0820312 7.125 -0.09375 C 7.144531 -0.113281 7.164062 -0.125 7.1875 -0.125 C 7.3125 -0.1875 7.378906 -0.25 7.390625 -0.3125 C 7.410156 -0.375 7.421875 -0.46875 7.421875 -0.59375 C 7.421875 -0.632812 7.421875 -0.75 7.421875 -0.9375 C 7.429688 -1.132812 7.4375 -1.375 7.4375 -1.65625 C 7.4375 -1.945312 7.429688 -2.257812 7.421875 -2.59375 C 7.421875 -2.9375 7.421875 -3.273438 7.421875 -3.609375 C 7.421875 -3.941406 7.421875 -4.25 7.421875 -4.53125 C 7.421875 -4.8125 7.421875 -5.046875 7.421875 -5.234375 C 7.421875 -5.421875 7.421875 -5.523438 7.421875 -5.546875 C 7.410156 -5.660156 7.347656 -5.71875 7.234375 -5.71875 C 7.210938 -5.71875 7.101562 -5.71875 6.90625 -5.71875 C 6.71875 -5.726562 6.46875 -5.734375 6.15625 -5.734375 C 5.851562 -5.734375 5.507812 -5.734375 5.125 -5.734375 C 4.75 -5.734375 4.363281 -5.734375 3.96875 -5.734375 C 3.570312 -5.734375 3.1875 -5.734375 2.8125 -5.734375 C 2.445312 -5.734375 2.109375 -5.734375 1.796875 -5.734375 C 1.492188 -5.734375 1.25 -5.734375 1.0625 -5.734375 C 0.882812 -5.734375 0.789062 -5.734375 0.78125 -5.734375 C 0.65625 -5.742188 0.554688 -5.722656 0.484375 -5.671875 C 0.421875 -5.617188 0.378906 -5.53125 0.359375 -5.40625 C 0.347656 -5.394531 0.335938 -5.378906 0.328125 -5.359375 C 0.328125 -5.347656 0.320312 -5.34375 0.3125 -5.34375 C 0.28125 -5.34375 0.265625 -5.367188 0.265625 -5.421875 C 0.265625 -5.617188 0.265625 -5.820312 0.265625 -6.03125 C 0.265625 -6.238281 0.265625 -6.453125 0.265625 -6.671875 C 0.265625 -6.765625 0.273438 -6.820312 0.296875 -6.84375 C 0.316406 -6.875 0.378906 -6.890625 0.484375 -6.890625 C 0.535156 -6.890625 0.703125 -6.890625 0.984375 -6.890625 C 1.265625 -6.890625 1.628906 -6.890625 2.078125 -6.890625 C 2.523438 -6.890625 3.023438 -6.890625 3.578125 -6.890625 C 4.140625 -6.890625 4.726562 -6.890625 5.34375 -6.890625 C 5.957031 -6.890625 6.566406 -6.890625 7.171875 -6.890625 C 7.785156 -6.890625 8.367188 -6.890625 8.921875 -6.890625 C 9.472656 -6.890625 9.96875 -6.890625 10.40625 -6.890625 C 10.851562 -6.890625 11.207031 -6.890625 11.46875 -6.890625 C 11.738281 -6.890625 11.890625 -6.890625 11.921875 -6.890625 C 12.023438 -6.898438 12.078125 -6.847656 12.078125 -6.734375 Z M 12.078125 -6.734375 "/></g></g></g></g></svg>